# xmcd
#
# Track frame offsets:
#	150
#	34837
#	69696
#	105378
#	147152
#	179774
#	212150
#	242383
#	268793
#
# Disc length: 4072 seconds
#
# Revision: 0
# Processed by: cddbd v1.5.2PL0 Copyright (c) Steve Scherf et al.
# Submitted via: EasyCDDAExtractor 15.3.0.1
#
DISCID=840fe609
DTITLE=Various Artist - DHVN - Mot Goc Que Em
DYEAR=2003
DGENRE=Tan Co Giao Duyen
TTITLE0=Thanh Tuan and Le Thuy - Cung Dan Moi
TTITLE1=Minh Canh and Le Thuy - Bong Sung Trang
TTITLE2=Minh Vuong and Le Thuy - Mot Goc Que Em
TTITLE3=Thanh Tuan and Thanh Nhanh - Dong Kinh Nam Cu
TTITLE4=Minh Canh and Thanh Kim Hue - Re Ma Dau Mua
TTITLE5=Hoai Thanh and Thanh Kim Hue - Chuyen Mua Dau Chin
TTITLE6=Thanh Tuan and Thanh Kim Hue - Tieng Chan Em Buoc Que Cau
TTITLE7=Minh Vuong - Khoi Trang
TTITLE8=Thanh Nga and Thanh Kim Hue - Nguoi Me Dao Ham
EXTD=
EXTT0=
EXTT1=
EXTT2=
EXTT3=
EXTT4=
EXTT5=
EXTT6=
EXTT7=
EXTT8=
PLAYORDER=
